<svg version="1.2" xmlns="http://www.w3.org/2000/svg" viewBox="0 0 214 221" width="214" height="221">
	<title>OnlyFelinesLogo</title>
	<style>
		.s0 { fill: #edbbbb } 
		.s1 { fill: #f8ecec } 
		.s2 { fill: #000000 } 
	</style>
	<path id="Shape 5" class="s0" d="m108 210c-55.3 0-100-44.7-100-100 0-55.3 44.7-100 100-100 55.3 0 100 44.7 100 100 0 55.3-44.7 100-100 100z"/>
	<path id="Shape 11" class="s1" d="m108 135c-13.8 0-25-11.2-25-25 0-13.8 11.2-25 25-25 13.8 0 25 11.2 25 25 0 13.8-11.2 25-25 25z"/>
	<path id="Layer 2" class="s2" d="m131.9 108.5l-0.3-0.9 66.5-17.7 0.2 1z"/>
	<path id="Shape 12" class="s2" d="m133.2 109v-1l75.3 1.9v1z"/>
	<path id="Shape 13" class="s2" d="m135.1 110.8l0.4-0.9 59.2 26.4-0.4 0.9z"/>
	<path id="Shape 15" class="s2" d="m82.5 105.3v1l-71.7 2.2v-1z"/>
	<path id="Shape 17" class="s2" d="m82.8 105.1l-0.2 1-69.8-14.1 0.2-1z"/>
	<path id="Shape 16" class="s2" d="m80.9 107.3l0.3 0.9-64.4 19.8-0.3-1z"/>
	<path id="Shape 18" class="s2" d="m14.7 27l33.2 8.4-23.8 24.7z"/>
	<path id="Shape 18 copy" class="s2" d="m195.8 18.6l-6 33.7-26.3-21.9z"/>
</svg>